<svg xmlns="http://www.w3.org/2000/svg" xmlns:xlink="http://www.w3.org/1999/xlink" width="64" height="64" viewBox="0 0 64 64">
  <defs>
    <path id="path-2" fill-rule="evenodd" d="M20.19316101 11.48492432c.49163818-.31317139 1.12019348-.31323243 1.61183167-.00006104l10.19560241 6.49438477 10.19340515-6.49432373c.49160767-.31323243 1.12039185-.31323243 1.61199952 0l11 7.00823974c.4322052.27539063.69400024.75250244.69400024 1.26507569 0 .51257324-.26179504.98962402-.69400024 1.26501464l-9.0144043 5.74316407 9.0144043 5.74316406c.4322052.27545166.69400024.7524414.69400024 1.26501465 0 .51263428-.26179504.98962402-.69400024 1.26501465l-9.21279908 5.86938476.43899536.29260254c.41720582.27819824.6678009.74664307.6678009 1.24798584 0 .50164795-.25059508.97003174-.6678009 1.24822998l-13.19898986 8.8001709c-.50379944.33599854-1.16020203.33599854-1.66419983.00024414L17.9680481 43.69799805c-.41732789-.27819825-.66801453-.74658203-.66801453-1.24798584.00003052-.50158692.25068664-.97003174.66802978-1.24822998l.4393158-.29278565-9.21336365-5.86999512C8.76171875 34.76361084 8.5 34.286438 8.5 33.77398682c0-.51257325.261734-.9897461.69403076-1.26519776l9.01443482-5.74298095L9.1940155 21.022583C8.76171875 20.74719238 8.5 20.27008057 8.5 19.75750732c0-.51257324.261734-.98962402.69403076-1.26507568l10.99913025-7.00750732zm.8060608 3.0435791l-8.20758057 5.22906494 8.2075653 5.22912598 8.20880127-5.22930909-8.208786-5.22888183zM43 24.987854l-8.20840454-5.22967529L43 14.52856445l8.20838928 5.22961426L43 24.98785401zm-2.79161072 1.77856446l-8.209198-5.23010254-8.20907592 5.22949219 8.21047973 5.22979736 8.2077942-5.22918701zm-11.0499878 6.97576904l-2.1364746 1.42419434-6.02272034 3.83660888-8.2075653-5.2290039 8.20758056-5.22900391 8.15917969 5.19720459zm5.68460084-.00042725l2.20979309 1.47344971L43 39.0039673l8.20840454-5.22937012L43 28.5449829l-8.15699768 5.19677734zm-6.18299866 3.93823243l-7.15563965 4.77001953 10.49664307 6.99719238 10.49499512-6.99743652-7.081604-4.72137452-3.41519166-2.17559814-3.33920288 2.12719727z"/>
    <mask id="mask-3" x="0" y="0" maskContentUnits="userSpaceOnUse" maskUnits="userSpaceOnUse">
      <rect width="64" height="64" x="0" y="0" fill="black"/>
      <use fill="white" xlink:href="#path-2"/>
    </mask>
  </defs>
  <g>
    <path fill="rgb(0,0,0)" fill-rule="evenodd" d="M8 0h48c4.4153202 0 8 3.5846798 8 8v48c0 4.4153202-3.5846798 8-8 8H8c-4.4153202 0-8-3.5846798-8-8V8c0-4.4153202 3.5846798-8 8-8z"/>
    <g>
      <use fill="rgb(255,255,255)" xlink:href="#path-2"/>
      <use fill-opacity="0" stroke="rgb(0,0,0)" stroke-linecap="butt" stroke-linejoin="miter" stroke-width="1" mask="url(#mask-3)" xlink:href="#path-2"/>
    </g>
  </g>
</svg>
