<svg xmlns="http://www.w3.org/2000/svg" width="76" height="64" viewBox="0 0 76 64" fill="#000">
  <g>
    <path fill-opacity="0.5" fill-rule="evenodd" d="M0 8c0-4.418278 3.581722-8 8-8h17.72806533c2.37865227 0 4.63394534 1.05849172 6.15383817 2.88822186l33.22660099 40C69.43869026 48.10113638 65.73146398 56 58.95466632 56H8c-4.418278 0-8-3.581722-8-8V8z"/>
    <path fill-rule="evenodd" d="M8 6.59793814h60c4.4153202 0 8 3.5846798 8 8V56c0 4.4153202-3.5846798 8-8 8H8c-4.4153202 0-8-3.5846798-8-8V14.59793814c0-4.4153202 3.5846798-8 8-8z"/>
  </g>
</svg>
