<svg xmlns="http://www.w3.org/2000/svg" width="64" height="64" viewBox="0 0 64 64">
  <g>
    <path fill="rgb(0,0,0)" fill-rule="evenodd" d="M8 0h48c4.4153202 0 8 3.5846798 8 8v48c0 4.4153202-3.5846798 8-8 8H8c-4.4153202 0-8-3.5846798-8-8V8c0-4.4153202 3.5846798-8 8-8z"/>
    <path fill="rgb(255,255,255)" fill-rule="evenodd" d="M17.82530212 48.3491211h28.34939576C51.59183502 48.3491211 56 43.70007323 56 37.98693847c0-3.60559082-1.76325989-6.91156006-4.64326477-8.79187012.00979614-.1652832.00979614-.32025147.00979614-.48553467 0-7.2008667-5.55429077-13.05865478-12.38204193-13.05865478-3.4285736 0-6.6906128 1.49804687-9.03183746 4.13250732-.7934723-.16534424-1.56734467-.24798584-2.33142853-.24798584-5.10367584 0-9.64897919 3.2956543-11.5102005 8.25463867C11.44816208 28.64752197 8 32.91430664 8 37.98693848c0 5.71313476 4.40816498 10.36218261 9.82530212 10.36218261zm.00000763-19.24700928c1.42040253-4.43206787 5.35836792-7.41778565 9.7959137-7.41778565.79347229 0 1.61632538.11364746 2.45877838.30993653.37224579.09295654.77388-.0413208 1.01877594-.35125733 1.96897888-2.4588623 4.84897614-3.8638916 7.88571167-3.8638916 5.70122528 0 10.34449005 4.89697266 10.34449005 10.909729 0 .33062744-.01959228.66119385-.04898071.98150635-.03918457.43389893.17633057.84710693.53877258 1.05377197 2.54694367 1.43603516 4.13388062 4.2150879 4.13388062 7.25250245 0 4.5250244-3.48735047 8.20294189-7.7779541 8.20294189H17.82530975c-4.29061126 0-7.77796173-3.67791748-7.77796173-8.2029419 0-4.194458 2.97795868-7.69677734 6.92571259-8.15130615.39183807-.0413208.72489929-.33062744.85224914-.72320556z"/>
  </g>
</svg>
