<svg xmlns="http://www.w3.org/2000/svg" width="23.324" height="23.337" viewBox="0 0 23.324 23.337">
  <g>
    <path fill="rgb(0,0,0)" fill-rule="evenodd" d="M.93918502 21.2153323L21.20276708.95173886c.39026274-.39026297 1.0239506-.39026315 1.41421356-4e-7.39026297.39026275.39026314 1.0239506 4e-7 1.41421356L2.35339898 22.62954546c-.39026275.39026297-1.0239506.39026314-1.41421356 4e-7-.39026297-.39026275-.39026315-1.0239506-4e-7-1.41421356z"/>
    <path fill="rgb(0,0,0)" fill-rule="evenodd" d="M2.12132339.70710413l20.26358205 20.26359344c.39026275.39026297.39026257 1.02395082-4e-7 1.41421356-.39026296.39026275-1.02395081.39026257-1.41421356-4e-7L.70710943 2.1213173c-.39026275-.39026297-.39026257-1.02395082 4e-7-1.41421356.39026296-.39026275 1.02395081-.39026257 1.41421356 4e-7z"/>
  </g>
</svg>
